<svg xmlns:mydata="http://www.w3.org/2000/svg" mydata:contrastcolor="326295" mydata:template="Default" mydata:presentation="2.5" mydata:layouttype="undefined" mydata:specialfontid="undefined" mydata:id1="484" mydata:id2="484" mydata:companyname="Get Hours Playlist" mydata:companytagline="" version="1.1" xmlns="http://www.w3.org/2000/svg" xmlns:xlink="http://www.w3.org/1999/xlink" viewBox="0 0 550 470"><g fill="none" fill-rule="none" stroke="none" stroke-width="1" stroke-linecap="butt" stroke-linejoin="miter" stroke-miterlimit="10" stroke-dasharray="" stroke-dashoffset="0" font-family="none" font-weight="none" font-size="none" text-anchor="none" style="mix-blend-mode: normal"><g data-paper-data="{&quot;isGlobalGroup&quot;:true}"><g data-paper-data="{&quot;stacked&quot;:true,&quot;isPrimaryText&quot;:true}" fill="#00aa00" fill-rule="nonzero"><path d="M175.88671,287.35734c-2.10213,0 -4.15954,0.40254 -6.08277,1.25233c-1.8785,0.76035 -3.53337,1.8785 -5.00934,3.35447c-1.43124,1.43124 -2.54939,3.08611 -3.35447,4.96461c-0.80507,1.92323 -1.20761,3.98063 -1.20761,6.08277c0,2.10213 0.40254,4.15954 1.20761,6.08277c0.80507,1.8785 1.92323,3.53337 3.35447,5.00934c1.47597,1.43124 3.13084,2.54939 5.00934,3.35447c1.92323,0.80507 3.98063,1.20761 6.08277,1.20761c2.10213,0 4.15954,-0.40254 6.08277,-1.20761c1.8785,-0.80507 3.53337,-1.92323 4.96461,-3.35447c1.47597,-1.47597 2.59412,-3.13084 3.35447,-5.00934c0.8498,-1.92323 1.25233,-3.98063 1.25233,-6.08277c0,-1.25233 -0.98398,-2.23631 -2.23631,-2.23631h-11.49464c-1.25233,0 -2.23631,0.98398 -2.23631,2.23631c0,1.25233 0.98398,2.23631 2.23631,2.23631h9.0347c-0.44726,2.14686 -1.47597,4.11481 -3.04138,5.68023c-2.10213,2.10213 -4.91988,3.26501 -7.91654,3.26501c-2.99666,0 -5.81441,-1.16288 -7.91654,-3.26501c-2.10213,-2.10213 -3.26501,-4.91988 -3.26501,-7.91654c0,-2.99666 1.16288,-5.81441 3.26501,-7.91654c2.10213,-2.10213 4.91988,-3.26501 7.91654,-3.26501c2.95193,0 5.72496,1.11816 7.82709,3.22029c0.93925,0.8498 2.23631,0.89452 3.17556,-0.04473c0.8498,-0.89452 0.8498,-2.32576 -0.04473,-3.17556c-2.95193,-2.86248 -6.84311,-4.47262 -10.95792,-4.47262z" data-paper-data="{&quot;glyphName&quot;:&quot;G&quot;,&quot;glyphIndex&quot;:0,&quot;firstGlyphOfWord&quot;:true,&quot;word&quot;:1,&quot;line&quot;:1,&quot;firstGlyphOfFirstLine&quot;:true}"></path><path d="M197.80255,287.35734c-1.25233,0 -2.23631,0.98398 -2.23631,2.23631v26.83573c0,1.25233 0.98398,2.23631 2.23631,2.23631h15.34109c1.20761,0 2.23631,-0.98398 2.23631,-2.23631c0,-1.25233 -1.0287,-2.23631 -2.23631,-2.23631h-13.10478v-8.94524h13.10478c1.20761,0 2.23631,-0.98398 2.23631,-2.23631c0,-1.25233 -1.0287,-2.23631 -2.23631,-2.23631h-13.10478v-8.94524h13.10478c1.20761,0 2.23631,-0.98398 2.23631,-2.23631c0,-1.25233 -1.0287,-2.23631 -2.23631,-2.23631z" data-paper-data="{&quot;glyphName&quot;:&quot;E&quot;,&quot;glyphIndex&quot;:1,&quot;word&quot;:1,&quot;line&quot;:1}"></path><path d="M220.29984,287.35734c-1.25233,0 -2.23631,0.98398 -2.23631,2.23631c0,1.25233 0.98398,2.23631 2.23631,2.23631h6.39585v24.59942c0,1.25233 0.98398,2.23631 2.23631,2.23631c1.20761,0 2.23631,-0.98398 2.23631,-2.23631v-24.59942h6.39585c1.20761,0 2.23631,-0.98398 2.23631,-2.23631c0,-1.25233 -1.0287,-2.23631 -2.23631,-2.23631z" data-paper-data="{&quot;glyphName&quot;:&quot;T&quot;,&quot;glyphIndex&quot;:2,&quot;lastGlyphOfWord&quot;:true,&quot;word&quot;:1,&quot;line&quot;:1}"></path><path d="M274.50801,287.35734c-1.25233,0 -2.23631,0.98398 -2.23631,2.23631v11.18155h-12.7917v-11.18155c0,-1.25233 -0.98398,-2.23631 -2.23631,-2.23631c-1.25233,0 -2.23631,0.98398 -2.23631,2.23631v26.83573c0,1.25233 0.98398,2.23631 2.23631,2.23631c1.25233,0 2.23631,-0.98398 2.23631,-2.23631v-11.18155h12.7917v11.18155c0,1.25233 0.98398,2.23631 2.23631,2.23631c1.20761,0 2.23631,-0.98398 2.23631,-2.23631v-26.83573c0,-1.25233 -1.0287,-2.23631 -2.23631,-2.23631z" data-paper-data="{&quot;glyphName&quot;:&quot;H&quot;,&quot;glyphIndex&quot;:3,&quot;firstGlyphOfWord&quot;:true,&quot;word&quot;:2,&quot;line&quot;:1}"></path><path d="M296.42386,287.35734c-2.10213,0 -4.15954,0.40254 -6.08277,1.25233c-1.8785,0.76035 -3.53337,1.8785 -5.00934,3.35447c-1.43124,1.43124 -2.54939,3.08611 -3.30974,4.96461c-0.8498,1.92323 -1.25233,3.98063 -1.25233,6.08277c0,2.10213 0.40254,4.15954 1.25233,6.08277c0.76035,1.8785 1.8785,3.53337 3.30974,5.00934c1.47597,1.43124 3.13084,2.54939 5.00934,3.30974c1.92323,0.8498 3.98063,1.25233 6.08277,1.25233c2.10213,0 4.15954,-0.40254 6.08277,-1.25233c1.8785,-0.76035 3.53337,-1.8785 4.96461,-3.30974c1.47597,-1.47597 2.59412,-3.13084 3.35447,-5.00934c0.8498,-1.92323 1.25233,-3.98063 1.25233,-6.08277c0,-2.10213 -0.40254,-4.15954 -1.25233,-6.08277c-0.76035,-1.8785 -1.8785,-3.53337 -3.35447,-4.96461c-1.43124,-1.47597 -3.08611,-2.59412 -4.96461,-3.35447c-1.92323,-0.8498 -3.98063,-1.25233 -6.08277,-1.25233zM296.42386,291.82996c2.99666,0 5.76968,1.16288 7.91654,3.26501c2.10213,2.14686 3.26501,4.91988 3.26501,7.91654c0,2.99666 -1.16288,5.81441 -3.26501,7.91654c-2.14686,2.10213 -4.91988,3.26501 -7.91654,3.26501c-2.99666,0 -5.81441,-1.16288 -7.91654,-3.26501c-2.10213,-2.10213 -3.26501,-4.91988 -3.26501,-7.91654c0,-2.99666 1.16288,-5.76968 3.26501,-7.91654c2.10213,-2.10213 4.91988,-3.26501 7.91654,-3.26501z" data-paper-data="{&quot;glyphName&quot;:&quot;O&quot;,&quot;glyphIndex&quot;:4,&quot;word&quot;:2,&quot;line&quot;:1}"></path><path d="M335.11203,287.35734c-1.20761,0 -2.23631,0.98398 -2.23631,2.23631v18.20357c0,1.6996 -0.62617,3.30974 -1.83377,4.51735c-1.20761,1.20761 -2.81775,1.8785 -4.51735,1.8785c-1.74432,0 -3.35447,-0.67089 -4.51735,-1.8785c-1.20761,-1.20761 -1.8785,-2.81775 -1.8785,-4.51735v-18.20357c0,-1.25233 -1.0287,-2.23631 -2.23631,-2.23631c-1.25233,0 -2.23631,0.98398 -2.23631,2.23631v18.20357c0,2.9072 1.11816,5.6355 3.17556,7.69291c2.05741,2.05741 4.7857,3.17556 7.69291,3.17556c2.86248,0 5.59078,-1.11816 7.64818,-3.17556c2.05741,-2.05741 3.17556,-4.7857 3.17556,-7.69291v-18.20357c0,-1.25233 -0.98398,-2.23631 -2.23631,-2.23631z" data-paper-data="{&quot;glyphName&quot;:&quot;U&quot;,&quot;glyphIndex&quot;:5,&quot;word&quot;:2,&quot;line&quot;:1}"></path><path d="M344.9518,287.35734c-1.25233,0 -2.23631,0.98398 -2.23631,2.23631v26.83573c0,1.25233 0.98398,2.23631 2.23631,2.23631c1.25233,0 2.23631,-0.98398 2.23631,-2.23631v-9.25833h6.12749l7.02202,10.51066c0.76035,1.11816 2.19158,1.20761 3.08611,0.62617c1.0287,-0.71562 1.34179,-2.10213 0.62617,-3.13084l-5.81441,-8.72161c1.20761,-0.49199 2.32576,-1.25233 3.30974,-2.19158c1.8785,-1.8785 2.9072,-4.33844 2.9072,-7.02202c0,-2.63885 -1.0287,-5.09879 -2.9072,-6.97729c-1.8785,-1.8785 -4.38317,-2.9072 -7.02202,-2.9072zM347.18811,291.82996h7.3351c2.99666,0 5.4566,2.45994 5.4566,5.41187c0,2.99666 -2.45994,5.4566 -5.4566,5.4566h-7.3351z" data-paper-data="{&quot;glyphName&quot;:&quot;R&quot;,&quot;glyphIndex&quot;:6,&quot;word&quot;:2,&quot;line&quot;:1}"></path><path d="M376.97577,287.35734c-2.37049,0 -4.65153,0.93925 -6.3064,2.63885c-1.6996,1.65487 -2.63885,3.93591 -2.63885,6.3064c0,2.41522 0.93925,4.65153 2.63885,6.35112c1.65487,1.65487 3.93591,2.59412 6.3064,2.59412h3.84645c2.45994,0 4.47262,2.01268 4.47262,4.47262c0,2.45994 -2.01268,4.47262 -4.47262,4.47262h-10.55539c-1.25233,0 -2.23631,0.98398 -2.23631,2.23631c0,1.25233 0.98398,2.23631 2.23631,2.23631h10.55539c2.37049,0 4.6068,-0.93925 6.3064,-2.63885c1.6996,-1.65487 2.63885,-3.93591 2.63885,-6.3064c0,-2.37049 -0.93925,-4.65153 -2.63885,-6.3064c-1.6996,-1.6996 -3.93591,-2.63885 -6.3064,-2.63885h-3.84645c-2.45994,0 -4.47262,-2.01268 -4.47262,-4.47262c0,-2.45994 2.01268,-4.47262 4.47262,-4.47262h10.55539c1.20761,0 2.23631,-0.98398 2.23631,-2.23631c0,-1.25233 -1.0287,-2.23631 -2.23631,-2.23631z" data-paper-data="{&quot;glyphName&quot;:&quot;S&quot;,&quot;glyphIndex&quot;:7,&quot;lastGlyphOfWord&quot;:true,&quot;word&quot;:2,&quot;line&quot;:1,&quot;lastGlyphOfFirstLine&quot;:true}"></path><path d="M187.67207,323.67503c-1.25233,0 -2.23631,0.98398 -2.23631,2.23631v26.83573c0,1.25233 0.98398,2.23631 2.23631,2.23631c1.25233,0 2.23631,-0.98398 2.23631,-2.23631v-9.25833h7.3351c2.63885,0 5.14351,-1.0287 7.02202,-2.9072c1.8785,-1.8785 2.9072,-4.33844 2.9072,-7.02202c0,-2.63885 -1.0287,-5.09879 -2.9072,-6.97729c-1.8785,-1.8785 -4.38317,-2.9072 -7.02202,-2.9072zM189.90838,328.14765h7.3351c2.99666,0 5.4566,2.45994 5.4566,5.41187c0,2.99666 -2.45994,5.4566 -5.4566,5.4566h-7.3351z" data-paper-data="{&quot;glyphName&quot;:&quot;P&quot;,&quot;glyphIndex&quot;:8,&quot;firstGlyphOfWord&quot;:true,&quot;word&quot;:2,&quot;line&quot;:2,&quot;firstGlyphOfSecondLine&quot;:true}"></path><path d="M213.43437,323.67503c-1.25233,0 -2.23631,0.98398 -2.23631,2.23631v22.98927c0,3.35447 2.7283,6.08277 6.08277,6.08277h11.49464c1.20761,0 2.23631,-0.98398 2.23631,-2.23631c0,-1.25233 -1.0287,-2.23631 -2.23631,-2.23631h-11.49464c-0.89452,0 -1.61014,-0.71562 -1.61014,-1.61014v-22.98927c0,-1.25233 -0.98398,-2.23631 -2.23631,-2.23631z" data-paper-data="{&quot;glyphName&quot;:&quot;L&quot;,&quot;glyphIndex&quot;:9,&quot;word&quot;:2,&quot;line&quot;:2}"></path><path d="M247.38156,323.67503c-0.89452,0 -1.74432,0.58144 -2.05741,1.43124l-10.55539,26.83573c-0.44726,1.11816 0.08945,2.41522 1.25233,2.9072c1.07343,0.44726 2.45994,-0.13418 2.9072,-1.29706l1.6996,-4.33844h13.50732l1.6996,4.33844c0.44726,1.16288 1.83377,1.74432 2.9072,1.29706c1.16288,-0.49199 1.6996,-1.78905 1.25233,-2.9072l-10.51066,-26.83573c-0.35781,-0.8498 -1.16288,-1.43124 -2.10213,-1.43124zM242.37223,344.74107l5.00934,-12.70224l5.00934,12.70224z" data-paper-data="{&quot;glyphName&quot;:&quot;A&quot;,&quot;glyphIndex&quot;:10,&quot;word&quot;:2,&quot;line&quot;:2}"></path><path d="M280.8815,323.94338c-1.07343,-0.58144 -2.45994,-0.1789 -3.04138,0.89452l-7.64818,13.73095l-7.60346,-13.73095c-0.62617,-1.07343 -1.96795,-1.47597 -3.04138,-0.89452c-1.07343,0.62617 -1.47597,1.96795 -0.89452,3.04138l9.30305,16.77233v8.98997c0,1.25233 1.0287,2.23631 2.23631,2.23631c1.25233,0 2.23631,-0.98398 2.23631,-2.23631v-8.98997l9.30305,-16.77233c0.62617,-1.07343 0.22363,-2.41522 -0.8498,-3.04138z" data-paper-data="{&quot;glyphName&quot;:&quot;Y&quot;,&quot;glyphIndex&quot;:11,&quot;word&quot;:2,&quot;line&quot;:2}"></path><path d="M287.85879,323.67503c-1.25233,0 -2.23631,0.98398 -2.23631,2.23631v22.98927c0,3.35447 2.7283,6.08277 6.08277,6.08277h11.49464c1.20761,0 2.23631,-0.98398 2.23631,-2.23631c0,-1.25233 -1.0287,-2.23631 -2.23631,-2.23631h-11.49464c-0.89452,0 -1.61014,-0.71562 -1.61014,-1.61014v-22.98927c0,-1.25233 -0.98398,-2.23631 -2.23631,-2.23631z" data-paper-data="{&quot;glyphName&quot;:&quot;L&quot;,&quot;glyphIndex&quot;:12,&quot;word&quot;:2,&quot;line&quot;:2}"></path><path d="M311.69786,323.67503c-1.25233,0 -2.23631,0.98398 -2.23631,2.23631v26.83573c0,1.25233 0.98398,2.23631 2.23631,2.23631c1.25233,0 2.23631,-0.98398 2.23631,-2.23631v-26.83573c0,-1.25233 -0.98398,-2.23631 -2.23631,-2.23631z" data-paper-data="{&quot;glyphName&quot;:&quot;I&quot;,&quot;glyphIndex&quot;:13,&quot;word&quot;:2,&quot;line&quot;:2}"></path><path d="M327.35203,323.67503c-2.37049,0 -4.65153,0.93925 -6.3064,2.63885c-1.6996,1.65487 -2.63885,3.93591 -2.63885,6.3064c0,2.41522 0.93925,4.65153 2.63885,6.35112c1.65487,1.65487 3.93591,2.59412 6.3064,2.59412h3.84645c2.45994,0 4.47262,2.01268 4.47262,4.47262c0,2.45994 -2.01268,4.47262 -4.47262,4.47262h-10.55539c-1.25233,0 -2.23631,0.98398 -2.23631,2.23631c0,1.25233 0.98398,2.23631 2.23631,2.23631h10.55539c2.37049,0 4.6068,-0.93925 6.3064,-2.63885c1.6996,-1.65487 2.63885,-3.93591 2.63885,-6.3064c0,-2.37049 -0.93925,-4.65153 -2.63885,-6.3064c-1.6996,-1.6996 -3.93591,-2.63885 -6.3064,-2.63885h-3.84645c-2.45994,0 -4.47262,-2.01268 -4.47262,-4.47262c0,-2.45994 2.01268,-4.47262 4.47262,-4.47262h10.55539c1.20761,0 2.23631,-0.98398 2.23631,-2.23631c0,-1.25233 -1.0287,-2.23631 -2.23631,-2.23631z" data-paper-data="{&quot;glyphName&quot;:&quot;S&quot;,&quot;glyphIndex&quot;:14,&quot;word&quot;:2,&quot;line&quot;:2}"></path><path d="M345.06362,323.67503c-1.25233,0 -2.23631,0.98398 -2.23631,2.23631c0,1.25233 0.98398,2.23631 2.23631,2.23631h6.39585v24.59942c0,1.25233 0.98398,2.23631 2.23631,2.23631c1.20761,0 2.23631,-0.98398 2.23631,-2.23631v-24.59942h6.39585c1.20761,0 2.23631,-0.98398 2.23631,-2.23631c0,-1.25233 -1.0287,-2.23631 -2.23631,-2.23631z" data-paper-data="{&quot;glyphName&quot;:&quot;T&quot;,&quot;glyphIndex&quot;:15,&quot;lastGlyphOfWord&quot;:true,&quot;word&quot;:2,&quot;line&quot;:2,&quot;lastGlyphOfSecondLine&quot;:true}"></path></g><g data-paper-data="{&quot;fillRule&quot;:&quot;evenodd&quot;,&quot;isIcon&quot;:&quot;true&quot;,&quot;iconType&quot;:&quot;icon&quot;,&quot;rawIconId&quot;:&quot;18062&quot;,&quot;selectedEffects&quot;:{&quot;container&quot;:&quot;&quot;,&quot;transformation&quot;:&quot;&quot;,&quot;pattern&quot;:&quot;&quot;},&quot;bounds&quot;:{&quot;x&quot;:211.3834641478952,&quot;y&quot;:115.00000000000003,&quot;width&quot;:127.23307170420969,&quot;height&quot;:145.79165905552222},&quot;iconStyle&quot;:&quot;standalone&quot;}" fill-rule="evenodd"><g data-paper-data="{&quot;isPathIcon&quot;:true}"><path d="M307.25799,115c-1.10499,8.94396 6.45597,16.21692 14.42893,23.88588c12.00794,11.55194 24.95088,24.00188 10.63195,44.41278c-3.33698,4.74998 -5.09397,2.71199 -4.10198,0c2.62699,-7.11896 -0.553,-24.13588 -22.10389,-27.55286v80.8276h-0.223c-1.20799,10.82995 -11.24694,20.7009 -25.09788,23.47188c-16.38592,3.28398 -31.75984,-4.57598 -34.35183,-17.54491c-2.59799,-12.96194 8.57696,-26.12387 24.95488,-29.40785c7.21696,-1.43699 14.16193,-0.62 19.9829,1.74199v-99.83451z" fill-opacity="0.6" fill="#00aa00"></path><path d="M211.38346,137.67989h59.43871v12.36694h-59.43871z" fill="#00aa00"></path><path d="M211.38346,160.59978h59.43871v12.36494h-59.43871z" fill="#00aa00"></path><path d="M270.82217,183.51866h-59.43871v12.36694h59.43871z" fill="#00aa00"></path></g></g></g></g></svg>
